<mxfile host="app.diagrams.net" modified="2022-03-30T07:30:44.985Z" agent="5.0 (Macintosh; Intel Mac OS X 10_12_6) AppleWebKit/537.36 (KHTML, like Gecko) Chrome/99.0.4844.83 Safari/537.36" etag="xWnR9svkToNIxekhpW8n" version="15.0.3" type="github">
  <diagram id="I71OE4nxUPz9BCzFAyAM" name="Page-1">
    <mxGraphModel dx="19075" dy="8938" grid="0" gridSize="10" guides="1" tooltips="1" connect="1" arrows="1" fold="1" page="0" pageScale="1" pageWidth="827" pageHeight="1269" background="none" math="0" shadow="0">
      <root>
        <mxCell id="0" />
        <mxCell id="1" parent="0" />
        <mxCell id="x_obFE7ms34Sc6ZjcU9q-155" style="edgeStyle=orthogonalEdgeStyle;rounded=0;orthogonalLoop=1;jettySize=auto;html=1;entryX=0;entryY=0.5;entryDx=0;entryDy=0;strokeColor=#000000;" edge="1" parent="1" source="x_obFE7ms34Sc6ZjcU9q-3" target="x_obFE7ms34Sc6ZjcU9q-69">
          <mxGeometry relative="1" as="geometry" />
        </mxCell>
        <mxCell id="x_obFE7ms34Sc6ZjcU9q-3" value="体素特征&lt;br&gt;&lt;br&gt;体素坐标" style="rounded=1;whiteSpace=wrap;html=1;strokeColor=none;" vertex="1" parent="1">
          <mxGeometry x="-3563" y="-2483.5" width="73" height="40" as="geometry" />
        </mxCell>
        <mxCell id="x_obFE7ms34Sc6ZjcU9q-11" value="" style="group" vertex="1" connectable="0" parent="1">
          <mxGeometry x="-2918" y="-2506" width="160" height="135" as="geometry" />
        </mxCell>
        <mxCell id="x_obFE7ms34Sc6ZjcU9q-9" value="" style="rounded=1;whiteSpace=wrap;html=1;" vertex="1" parent="x_obFE7ms34Sc6ZjcU9q-11">
          <mxGeometry width="160" height="135" as="geometry" />
        </mxCell>
        <mxCell id="x_obFE7ms34Sc6ZjcU9q-5" value="Conv(64, 32)&lt;br&gt;BN, ReLU" style="rounded=1;whiteSpace=wrap;html=1;" vertex="1" parent="x_obFE7ms34Sc6ZjcU9q-11">
          <mxGeometry x="19" y="18" width="90" height="45" as="geometry" />
        </mxCell>
        <mxCell id="x_obFE7ms34Sc6ZjcU9q-7" value="Conv(32, 32)&lt;br&gt;BN, ReLU" style="rounded=1;whiteSpace=wrap;html=1;" vertex="1" parent="x_obFE7ms34Sc6ZjcU9q-11">
          <mxGeometry x="19" y="75" width="90" height="45" as="geometry" />
        </mxCell>
        <mxCell id="x_obFE7ms34Sc6ZjcU9q-8" value="&lt;div style=&quot;text-align: center&quot;&gt;&lt;font face=&quot;helvetica&quot;&gt;x3&lt;/font&gt;&lt;/div&gt;" style="text;whiteSpace=wrap;html=1;" vertex="1" parent="x_obFE7ms34Sc6ZjcU9q-11">
          <mxGeometry x="114.75" y="84" width="37" height="27" as="geometry" />
        </mxCell>
        <mxCell id="x_obFE7ms34Sc6ZjcU9q-10" value="block 0" style="text;html=1;strokeColor=none;fillColor=none;align=center;verticalAlign=middle;whiteSpace=wrap;rounded=0;" vertex="1" parent="x_obFE7ms34Sc6ZjcU9q-11">
          <mxGeometry x="106.75" y="5" width="53" height="20" as="geometry" />
        </mxCell>
        <mxCell id="x_obFE7ms34Sc6ZjcU9q-13" value="" style="group" vertex="1" connectable="0" parent="1">
          <mxGeometry x="-2918" y="-2282" width="160" height="135" as="geometry" />
        </mxCell>
        <mxCell id="x_obFE7ms34Sc6ZjcU9q-14" value="" style="rounded=1;whiteSpace=wrap;html=1;" vertex="1" parent="x_obFE7ms34Sc6ZjcU9q-13">
          <mxGeometry width="160" height="135" as="geometry" />
        </mxCell>
        <mxCell id="x_obFE7ms34Sc6ZjcU9q-15" value="Conv(32, 64)&lt;br&gt;BN, ReLU" style="rounded=1;whiteSpace=wrap;html=1;" vertex="1" parent="x_obFE7ms34Sc6ZjcU9q-13">
          <mxGeometry x="19" y="18" width="90" height="45" as="geometry" />
        </mxCell>
        <mxCell id="x_obFE7ms34Sc6ZjcU9q-16" value="Conv(64, 64)&lt;br&gt;BN, ReLU" style="rounded=1;whiteSpace=wrap;html=1;" vertex="1" parent="x_obFE7ms34Sc6ZjcU9q-13">
          <mxGeometry x="19" y="75" width="90" height="45" as="geometry" />
        </mxCell>
        <mxCell id="x_obFE7ms34Sc6ZjcU9q-17" value="&lt;div style=&quot;text-align: center&quot;&gt;&lt;font face=&quot;helvetica&quot;&gt;x3&lt;/font&gt;&lt;/div&gt;" style="text;whiteSpace=wrap;html=1;" vertex="1" parent="x_obFE7ms34Sc6ZjcU9q-13">
          <mxGeometry x="114.75" y="84" width="37" height="27" as="geometry" />
        </mxCell>
        <mxCell id="x_obFE7ms34Sc6ZjcU9q-18" value="block 1" style="text;html=1;strokeColor=none;fillColor=none;align=center;verticalAlign=middle;whiteSpace=wrap;rounded=0;" vertex="1" parent="x_obFE7ms34Sc6ZjcU9q-13">
          <mxGeometry x="106.75" y="5" width="53" height="20" as="geometry" />
        </mxCell>
        <mxCell id="x_obFE7ms34Sc6ZjcU9q-26" value="&lt;span style=&quot;font-size: 16px ; font-weight: 700&quot;&gt;Backbone_2DConv&lt;/span&gt;" style="text;html=1;strokeColor=none;fillColor=none;align=center;verticalAlign=middle;whiteSpace=wrap;rounded=0;" vertex="1" parent="1">
          <mxGeometry x="-2862" y="-2568" width="53" height="20" as="geometry" />
        </mxCell>
        <mxCell id="x_obFE7ms34Sc6ZjcU9q-27" value="" style="group" vertex="1" connectable="0" parent="1">
          <mxGeometry x="-2671" y="-2506" width="180" height="135" as="geometry" />
        </mxCell>
        <mxCell id="x_obFE7ms34Sc6ZjcU9q-39" value="" style="group" vertex="1" connectable="0" parent="x_obFE7ms34Sc6ZjcU9q-27">
          <mxGeometry width="180" height="82" as="geometry" />
        </mxCell>
        <mxCell id="x_obFE7ms34Sc6ZjcU9q-28" value="" style="rounded=1;whiteSpace=wrap;html=1;" vertex="1" parent="x_obFE7ms34Sc6ZjcU9q-39">
          <mxGeometry width="180" height="82" as="geometry" />
        </mxCell>
        <mxCell id="x_obFE7ms34Sc6ZjcU9q-29" value="ConvTrans(32, 64)&lt;br&gt;BN, ReLU" style="rounded=1;whiteSpace=wrap;html=1;" vertex="1" parent="x_obFE7ms34Sc6ZjcU9q-39">
          <mxGeometry x="12.989999999999998" y="18" width="109.63" height="45" as="geometry" />
        </mxCell>
        <mxCell id="x_obFE7ms34Sc6ZjcU9q-32" value="deblock 0" style="text;html=1;strokeColor=none;fillColor=none;align=center;verticalAlign=middle;whiteSpace=wrap;rounded=0;" vertex="1" parent="x_obFE7ms34Sc6ZjcU9q-39">
          <mxGeometry x="120.09375" y="5" width="59.625" height="20" as="geometry" />
        </mxCell>
        <mxCell id="x_obFE7ms34Sc6ZjcU9q-33" value="&lt;span style=&quot;font-size: 16px ; font-weight: 700&quot;&gt;Neck&lt;/span&gt;" style="text;html=1;strokeColor=none;fillColor=none;align=center;verticalAlign=middle;whiteSpace=wrap;rounded=0;" vertex="1" parent="1">
          <mxGeometry x="-2607.51" y="-2568" width="53" height="20" as="geometry" />
        </mxCell>
        <mxCell id="x_obFE7ms34Sc6ZjcU9q-42" style="edgeStyle=orthogonalEdgeStyle;rounded=0;orthogonalLoop=1;jettySize=auto;html=1;" edge="1" parent="1" source="x_obFE7ms34Sc6ZjcU9q-37" target="x_obFE7ms34Sc6ZjcU9q-14">
          <mxGeometry relative="1" as="geometry" />
        </mxCell>
        <mxCell id="x_obFE7ms34Sc6ZjcU9q-44" style="edgeStyle=orthogonalEdgeStyle;rounded=0;orthogonalLoop=1;jettySize=auto;html=1;entryX=0;entryY=0.5;entryDx=0;entryDy=0;" edge="1" parent="1" source="x_obFE7ms34Sc6ZjcU9q-37" target="x_obFE7ms34Sc6ZjcU9q-28">
          <mxGeometry relative="1" as="geometry" />
        </mxCell>
        <mxCell id="x_obFE7ms34Sc6ZjcU9q-37" value="(BS, 32, H, W)" style="rounded=0;whiteSpace=wrap;html=1;dashed=1;dashPattern=1 1;strokeColor=#b85450;fillColor=#f8cecc;" vertex="1" parent="1">
          <mxGeometry x="-2899" y="-2340" width="121.09" height="30" as="geometry" />
        </mxCell>
        <mxCell id="x_obFE7ms34Sc6ZjcU9q-45" style="edgeStyle=orthogonalEdgeStyle;rounded=0;orthogonalLoop=1;jettySize=auto;html=1;entryX=0;entryY=0.5;entryDx=0;entryDy=0;" edge="1" parent="1" source="x_obFE7ms34Sc6ZjcU9q-38" target="x_obFE7ms34Sc6ZjcU9q-34">
          <mxGeometry relative="1" as="geometry" />
        </mxCell>
        <mxCell id="x_obFE7ms34Sc6ZjcU9q-38" value="(BS, 64, H, W)" style="rounded=0;whiteSpace=wrap;html=1;dashed=1;dashPattern=1 1;strokeColor=#b85450;fillColor=#f8cecc;" vertex="1" parent="1">
          <mxGeometry x="-2898.55" y="-2116" width="121.09" height="30" as="geometry" />
        </mxCell>
        <mxCell id="x_obFE7ms34Sc6ZjcU9q-40" value="" style="group" vertex="1" connectable="0" parent="1">
          <mxGeometry x="-2671" y="-2282" width="180" height="82" as="geometry" />
        </mxCell>
        <mxCell id="x_obFE7ms34Sc6ZjcU9q-34" value="" style="rounded=1;whiteSpace=wrap;html=1;" vertex="1" parent="x_obFE7ms34Sc6ZjcU9q-40">
          <mxGeometry width="180" height="82" as="geometry" />
        </mxCell>
        <mxCell id="x_obFE7ms34Sc6ZjcU9q-35" value="ConvTrans(64, 64)&lt;br&gt;BN, ReLU" style="rounded=1;whiteSpace=wrap;html=1;" vertex="1" parent="x_obFE7ms34Sc6ZjcU9q-40">
          <mxGeometry x="12.989999999999782" y="18" width="109.63" height="45" as="geometry" />
        </mxCell>
        <mxCell id="x_obFE7ms34Sc6ZjcU9q-36" value="deblock 1" style="text;html=1;strokeColor=none;fillColor=none;align=center;verticalAlign=middle;whiteSpace=wrap;rounded=0;" vertex="1" parent="x_obFE7ms34Sc6ZjcU9q-40">
          <mxGeometry x="120.09375" y="5" width="59.625" height="20" as="geometry" />
        </mxCell>
        <mxCell id="x_obFE7ms34Sc6ZjcU9q-41" style="edgeStyle=orthogonalEdgeStyle;rounded=0;orthogonalLoop=1;jettySize=auto;html=1;" edge="1" parent="1" source="x_obFE7ms34Sc6ZjcU9q-9" target="x_obFE7ms34Sc6ZjcU9q-37">
          <mxGeometry relative="1" as="geometry" />
        </mxCell>
        <mxCell id="x_obFE7ms34Sc6ZjcU9q-43" style="edgeStyle=orthogonalEdgeStyle;rounded=0;orthogonalLoop=1;jettySize=auto;html=1;entryX=0.5;entryY=0;entryDx=0;entryDy=0;" edge="1" parent="1" source="x_obFE7ms34Sc6ZjcU9q-14" target="x_obFE7ms34Sc6ZjcU9q-38">
          <mxGeometry relative="1" as="geometry" />
        </mxCell>
        <mxCell id="x_obFE7ms34Sc6ZjcU9q-171" style="edgeStyle=orthogonalEdgeStyle;rounded=0;orthogonalLoop=1;jettySize=auto;html=1;entryX=1;entryY=0.5;entryDx=0;entryDy=0;fontSize=16;strokeColor=#000000;" edge="1" parent="1" source="x_obFE7ms34Sc6ZjcU9q-46" target="x_obFE7ms34Sc6ZjcU9q-47">
          <mxGeometry relative="1" as="geometry">
            <Array as="points">
              <mxPoint x="-2443" y="-2353" />
              <mxPoint x="-2443" y="-2140" />
            </Array>
          </mxGeometry>
        </mxCell>
        <mxCell id="x_obFE7ms34Sc6ZjcU9q-46" value="(BS, 64, H, W)" style="rounded=0;whiteSpace=wrap;html=1;dashed=1;dashPattern=1 1;strokeColor=#b85450;fillColor=#f8cecc;" vertex="1" parent="1">
          <mxGeometry x="-2641.55" y="-2368" width="121.09" height="30" as="geometry" />
        </mxCell>
        <mxCell id="x_obFE7ms34Sc6ZjcU9q-172" style="edgeStyle=orthogonalEdgeStyle;rounded=0;orthogonalLoop=1;jettySize=auto;html=1;fontSize=16;strokeColor=#000000;entryX=0.5;entryY=0;entryDx=0;entryDy=0;" edge="1" parent="1" source="x_obFE7ms34Sc6ZjcU9q-47" target="x_obFE7ms34Sc6ZjcU9q-53">
          <mxGeometry relative="1" as="geometry">
            <mxPoint x="-2581.005" y="-2079.6666666666665" as="targetPoint" />
          </mxGeometry>
        </mxCell>
        <mxCell id="x_obFE7ms34Sc6ZjcU9q-173" value="concatenate" style="edgeLabel;html=1;align=center;verticalAlign=middle;resizable=0;points=[];fontSize=12;" vertex="1" connectable="0" parent="x_obFE7ms34Sc6ZjcU9q-172">
          <mxGeometry x="-0.1098" y="-1" relative="1" as="geometry">
            <mxPoint as="offset" />
          </mxGeometry>
        </mxCell>
        <mxCell id="x_obFE7ms34Sc6ZjcU9q-47" value="(BS, 64, H, W)" style="rounded=0;whiteSpace=wrap;html=1;dashed=1;dashPattern=1 1;strokeColor=#b85450;fillColor=#f8cecc;" vertex="1" parent="1">
          <mxGeometry x="-2641.55" y="-2156" width="121.09" height="30" as="geometry" />
        </mxCell>
        <mxCell id="x_obFE7ms34Sc6ZjcU9q-50" style="edgeStyle=orthogonalEdgeStyle;rounded=0;orthogonalLoop=1;jettySize=auto;html=1;" edge="1" parent="1" source="x_obFE7ms34Sc6ZjcU9q-28" target="x_obFE7ms34Sc6ZjcU9q-46">
          <mxGeometry relative="1" as="geometry" />
        </mxCell>
        <mxCell id="x_obFE7ms34Sc6ZjcU9q-52" style="edgeStyle=orthogonalEdgeStyle;rounded=0;orthogonalLoop=1;jettySize=auto;html=1;strokeColor=#000000;" edge="1" parent="1" source="x_obFE7ms34Sc6ZjcU9q-34" target="x_obFE7ms34Sc6ZjcU9q-47">
          <mxGeometry relative="1" as="geometry" />
        </mxCell>
        <mxCell id="x_obFE7ms34Sc6ZjcU9q-176" style="edgeStyle=orthogonalEdgeStyle;rounded=0;orthogonalLoop=1;jettySize=auto;html=1;entryX=0;entryY=0.5;entryDx=0;entryDy=0;fontSize=12;strokeColor=#000000;" edge="1" parent="1" source="x_obFE7ms34Sc6ZjcU9q-53" target="x_obFE7ms34Sc6ZjcU9q-59">
          <mxGeometry relative="1" as="geometry">
            <Array as="points">
              <mxPoint x="-2384" y="-2056" />
              <mxPoint x="-2384" y="-2487" />
            </Array>
          </mxGeometry>
        </mxCell>
        <mxCell id="x_obFE7ms34Sc6ZjcU9q-178" style="edgeStyle=orthogonalEdgeStyle;rounded=0;orthogonalLoop=1;jettySize=auto;html=1;entryX=0;entryY=0.5;entryDx=0;entryDy=0;fontSize=12;strokeColor=#000000;" edge="1" parent="1" source="x_obFE7ms34Sc6ZjcU9q-53" target="x_obFE7ms34Sc6ZjcU9q-61">
          <mxGeometry relative="1" as="geometry">
            <Array as="points">
              <mxPoint x="-2384" y="-2056" />
              <mxPoint x="-2384" y="-2352" />
            </Array>
          </mxGeometry>
        </mxCell>
        <mxCell id="x_obFE7ms34Sc6ZjcU9q-53" value="(BS, 128, H, W)" style="rounded=0;whiteSpace=wrap;html=1;dashed=1;dashPattern=1 1;strokeColor=#b85450;fillColor=#f8cecc;" vertex="1" parent="1">
          <mxGeometry x="-2641" y="-2071" width="121.09" height="30" as="geometry" />
        </mxCell>
        <mxCell id="x_obFE7ms34Sc6ZjcU9q-59" value="Conv(128, 18)" style="rounded=1;whiteSpace=wrap;html=1;" vertex="1" parent="1">
          <mxGeometry x="-2351.25" y="-2505" width="106" height="36" as="geometry" />
        </mxCell>
        <mxCell id="x_obFE7ms34Sc6ZjcU9q-60" value="Conv(128, 42)" style="rounded=1;whiteSpace=wrap;html=1;" vertex="1" parent="1">
          <mxGeometry x="-2351.25" y="-2440" width="106" height="36" as="geometry" />
        </mxCell>
        <mxCell id="x_obFE7ms34Sc6ZjcU9q-61" value="Conv(128, 12)" style="rounded=1;whiteSpace=wrap;html=1;" vertex="1" parent="1">
          <mxGeometry x="-2348.75" y="-2370" width="106" height="36" as="geometry" />
        </mxCell>
        <mxCell id="x_obFE7ms34Sc6ZjcU9q-67" value="Backbone_3DConv" style="text;html=1;strokeColor=none;fillColor=none;align=center;verticalAlign=middle;whiteSpace=wrap;rounded=0;fontSize=16;fontStyle=1" vertex="1" parent="1">
          <mxGeometry x="-3287" y="-2574" width="117" height="20" as="geometry" />
        </mxCell>
        <mxCell id="x_obFE7ms34Sc6ZjcU9q-68" value="" style="group" vertex="1" connectable="0" parent="1">
          <mxGeometry x="-3444" y="-2503" width="165" height="135" as="geometry" />
        </mxCell>
        <mxCell id="x_obFE7ms34Sc6ZjcU9q-69" value="" style="rounded=1;whiteSpace=wrap;html=1;" vertex="1" parent="x_obFE7ms34Sc6ZjcU9q-68">
          <mxGeometry width="164" height="79" as="geometry" />
        </mxCell>
        <mxCell id="x_obFE7ms34Sc6ZjcU9q-70" value="SubConv3d(4, 16)&lt;br&gt;BN, ReLU" style="rounded=1;whiteSpace=wrap;html=1;" vertex="1" parent="x_obFE7ms34Sc6ZjcU9q-68">
          <mxGeometry x="7.5" y="20" width="111.5" height="45" as="geometry" />
        </mxCell>
        <mxCell id="x_obFE7ms34Sc6ZjcU9q-73" value="block 0" style="text;html=1;strokeColor=none;fillColor=none;align=center;verticalAlign=middle;whiteSpace=wrap;rounded=0;" vertex="1" parent="x_obFE7ms34Sc6ZjcU9q-68">
          <mxGeometry x="110.75" y="4" width="53" height="20" as="geometry" />
        </mxCell>
        <mxCell id="x_obFE7ms34Sc6ZjcU9q-157" style="edgeStyle=orthogonalEdgeStyle;rounded=0;orthogonalLoop=1;jettySize=auto;html=1;entryX=0.5;entryY=0;entryDx=0;entryDy=0;strokeColor=#000000;" edge="1" parent="1" source="x_obFE7ms34Sc6ZjcU9q-116" target="x_obFE7ms34Sc6ZjcU9q-119">
          <mxGeometry relative="1" as="geometry" />
        </mxCell>
        <mxCell id="x_obFE7ms34Sc6ZjcU9q-129" value="" style="group" vertex="1" connectable="0" parent="1">
          <mxGeometry x="-3444" y="-2287" width="164" height="134" as="geometry" />
        </mxCell>
        <mxCell id="x_obFE7ms34Sc6ZjcU9q-119" value="" style="rounded=1;whiteSpace=wrap;html=1;" vertex="1" parent="x_obFE7ms34Sc6ZjcU9q-129">
          <mxGeometry width="164" height="134" as="geometry" />
        </mxCell>
        <mxCell id="x_obFE7ms34Sc6ZjcU9q-120" value="SpaConv3d(16, 32)&lt;br&gt;BN, ReLU" style="rounded=1;whiteSpace=wrap;html=1;" vertex="1" parent="x_obFE7ms34Sc6ZjcU9q-129">
          <mxGeometry x="7.5" y="20" width="111.5" height="45" as="geometry" />
        </mxCell>
        <mxCell id="x_obFE7ms34Sc6ZjcU9q-121" value="block 2" style="text;html=1;strokeColor=none;fillColor=none;align=center;verticalAlign=middle;whiteSpace=wrap;rounded=0;" vertex="1" parent="x_obFE7ms34Sc6ZjcU9q-129">
          <mxGeometry x="110.75" y="4" width="53" height="20" as="geometry" />
        </mxCell>
        <mxCell id="x_obFE7ms34Sc6ZjcU9q-122" value="SubConv3d(32, 32)&lt;br&gt;BN, ReLU" style="rounded=1;whiteSpace=wrap;html=1;" vertex="1" parent="x_obFE7ms34Sc6ZjcU9q-129">
          <mxGeometry x="7.5" y="75" width="111.5" height="45" as="geometry" />
        </mxCell>
        <mxCell id="x_obFE7ms34Sc6ZjcU9q-123" value="&lt;div style=&quot;text-align: center&quot;&gt;&lt;font face=&quot;helvetica&quot;&gt;x2&lt;/font&gt;&lt;/div&gt;" style="text;whiteSpace=wrap;html=1;" vertex="1" parent="x_obFE7ms34Sc6ZjcU9q-129">
          <mxGeometry x="123.5" y="84" width="37" height="27" as="geometry" />
        </mxCell>
        <mxCell id="x_obFE7ms34Sc6ZjcU9q-130" value="" style="group" vertex="1" connectable="0" parent="1">
          <mxGeometry x="-3444" y="-2125" width="164" height="134" as="geometry" />
        </mxCell>
        <mxCell id="x_obFE7ms34Sc6ZjcU9q-131" value="" style="rounded=1;whiteSpace=wrap;html=1;" vertex="1" parent="x_obFE7ms34Sc6ZjcU9q-130">
          <mxGeometry width="164" height="134" as="geometry" />
        </mxCell>
        <mxCell id="x_obFE7ms34Sc6ZjcU9q-132" value="SpaConv3d(32, 64)&lt;br&gt;BN, ReLU" style="rounded=1;whiteSpace=wrap;html=1;" vertex="1" parent="x_obFE7ms34Sc6ZjcU9q-130">
          <mxGeometry x="7.5" y="20" width="111.5" height="45" as="geometry" />
        </mxCell>
        <mxCell id="x_obFE7ms34Sc6ZjcU9q-133" value="block 3" style="text;html=1;strokeColor=none;fillColor=none;align=center;verticalAlign=middle;whiteSpace=wrap;rounded=0;" vertex="1" parent="x_obFE7ms34Sc6ZjcU9q-130">
          <mxGeometry x="110.75" y="4" width="53" height="20" as="geometry" />
        </mxCell>
        <mxCell id="x_obFE7ms34Sc6ZjcU9q-134" value="SubConv3d(64, 64)&lt;br&gt;BN, ReLU" style="rounded=1;whiteSpace=wrap;html=1;" vertex="1" parent="x_obFE7ms34Sc6ZjcU9q-130">
          <mxGeometry x="7.5" y="75" width="111.5" height="45" as="geometry" />
        </mxCell>
        <mxCell id="x_obFE7ms34Sc6ZjcU9q-135" value="&lt;div style=&quot;text-align: center&quot;&gt;&lt;font face=&quot;helvetica&quot;&gt;x2&lt;/font&gt;&lt;/div&gt;" style="text;whiteSpace=wrap;html=1;" vertex="1" parent="x_obFE7ms34Sc6ZjcU9q-130">
          <mxGeometry x="123.5" y="84" width="37" height="27" as="geometry" />
        </mxCell>
        <mxCell id="x_obFE7ms34Sc6ZjcU9q-136" value="" style="group" vertex="1" connectable="0" parent="1">
          <mxGeometry x="-3197.99" y="-2505" width="164" height="134" as="geometry" />
        </mxCell>
        <mxCell id="x_obFE7ms34Sc6ZjcU9q-137" value="" style="rounded=1;whiteSpace=wrap;html=1;" vertex="1" parent="x_obFE7ms34Sc6ZjcU9q-136">
          <mxGeometry width="164" height="134" as="geometry" />
        </mxCell>
        <mxCell id="x_obFE7ms34Sc6ZjcU9q-138" value="SpaConv3d(64, 64)&lt;br&gt;BN, ReLU" style="rounded=1;whiteSpace=wrap;html=1;" vertex="1" parent="x_obFE7ms34Sc6ZjcU9q-136">
          <mxGeometry x="7.5" y="20" width="111.5" height="45" as="geometry" />
        </mxCell>
        <mxCell id="x_obFE7ms34Sc6ZjcU9q-139" value="block 4" style="text;html=1;strokeColor=none;fillColor=none;align=center;verticalAlign=middle;whiteSpace=wrap;rounded=0;" vertex="1" parent="x_obFE7ms34Sc6ZjcU9q-136">
          <mxGeometry x="110.75" y="4" width="53" height="20" as="geometry" />
        </mxCell>
        <mxCell id="x_obFE7ms34Sc6ZjcU9q-140" value="SubConv3d(64, 64)&lt;br&gt;BN, ReLU" style="rounded=1;whiteSpace=wrap;html=1;" vertex="1" parent="x_obFE7ms34Sc6ZjcU9q-136">
          <mxGeometry x="7.5" y="75" width="111.5" height="45" as="geometry" />
        </mxCell>
        <mxCell id="x_obFE7ms34Sc6ZjcU9q-141" value="&lt;div style=&quot;text-align: center&quot;&gt;&lt;font face=&quot;helvetica&quot;&gt;x2&lt;/font&gt;&lt;/div&gt;" style="text;whiteSpace=wrap;html=1;" vertex="1" parent="x_obFE7ms34Sc6ZjcU9q-136">
          <mxGeometry x="123.5" y="84" width="37" height="27" as="geometry" />
        </mxCell>
        <mxCell id="x_obFE7ms34Sc6ZjcU9q-151" value="" style="group" vertex="1" connectable="0" parent="1">
          <mxGeometry x="-3198" y="-2341" width="164" height="79" as="geometry" />
        </mxCell>
        <mxCell id="x_obFE7ms34Sc6ZjcU9q-148" value="" style="rounded=1;whiteSpace=wrap;html=1;" vertex="1" parent="x_obFE7ms34Sc6ZjcU9q-151">
          <mxGeometry width="164" height="79" as="geometry" />
        </mxCell>
        <mxCell id="x_obFE7ms34Sc6ZjcU9q-149" value="SubConv3d(64, 32)&lt;br&gt;BN, ReLU" style="rounded=1;whiteSpace=wrap;html=1;" vertex="1" parent="x_obFE7ms34Sc6ZjcU9q-151">
          <mxGeometry x="7.5" y="20" width="111.5" height="45" as="geometry" />
        </mxCell>
        <mxCell id="x_obFE7ms34Sc6ZjcU9q-150" value="block 5" style="text;html=1;strokeColor=none;fillColor=none;align=center;verticalAlign=middle;whiteSpace=wrap;rounded=0;" vertex="1" parent="x_obFE7ms34Sc6ZjcU9q-151">
          <mxGeometry x="110.75" y="4" width="53" height="20" as="geometry" />
        </mxCell>
        <mxCell id="x_obFE7ms34Sc6ZjcU9q-164" style="edgeStyle=orthogonalEdgeStyle;rounded=0;orthogonalLoop=1;jettySize=auto;html=1;entryX=0.5;entryY=0;entryDx=0;entryDy=0;fontSize=16;strokeColor=#000000;" edge="1" parent="1" source="x_obFE7ms34Sc6ZjcU9q-152" target="x_obFE7ms34Sc6ZjcU9q-153">
          <mxGeometry relative="1" as="geometry" />
        </mxCell>
        <mxCell id="x_obFE7ms34Sc6ZjcU9q-152" value="(BS, 32, 2, H, W)" style="rounded=0;whiteSpace=wrap;html=1;dashed=1;dashPattern=1 1;strokeColor=#b85450;fillColor=#f8cecc;" vertex="1" parent="1">
          <mxGeometry x="-3176.54" y="-2229" width="121.09" height="30" as="geometry" />
        </mxCell>
        <mxCell id="x_obFE7ms34Sc6ZjcU9q-166" style="edgeStyle=orthogonalEdgeStyle;rounded=0;orthogonalLoop=1;jettySize=auto;html=1;entryX=0;entryY=0.5;entryDx=0;entryDy=0;fontSize=16;strokeColor=#000000;" edge="1" parent="1" source="x_obFE7ms34Sc6ZjcU9q-153" target="x_obFE7ms34Sc6ZjcU9q-9">
          <mxGeometry relative="1" as="geometry" />
        </mxCell>
        <mxCell id="x_obFE7ms34Sc6ZjcU9q-153" value="(BS, 64, H, W)" style="rounded=0;whiteSpace=wrap;html=1;dashed=1;dashPattern=1 1;strokeColor=#b85450;fillColor=#f8cecc;" vertex="1" parent="1">
          <mxGeometry x="-3176.5400000000004" y="-2168" width="121.09" height="30" as="geometry" />
        </mxCell>
        <mxCell id="x_obFE7ms34Sc6ZjcU9q-156" style="edgeStyle=orthogonalEdgeStyle;rounded=0;orthogonalLoop=1;jettySize=auto;html=1;strokeColor=#000000;" edge="1" parent="1" source="x_obFE7ms34Sc6ZjcU9q-69" target="x_obFE7ms34Sc6ZjcU9q-116">
          <mxGeometry relative="1" as="geometry" />
        </mxCell>
        <mxCell id="x_obFE7ms34Sc6ZjcU9q-158" style="edgeStyle=orthogonalEdgeStyle;rounded=0;orthogonalLoop=1;jettySize=auto;html=1;strokeColor=#000000;" edge="1" parent="1" source="x_obFE7ms34Sc6ZjcU9q-119" target="x_obFE7ms34Sc6ZjcU9q-131">
          <mxGeometry relative="1" as="geometry" />
        </mxCell>
        <mxCell id="x_obFE7ms34Sc6ZjcU9q-159" value="" style="group" vertex="1" connectable="0" parent="1">
          <mxGeometry x="-3443.5" y="-2395" width="164" height="79" as="geometry" />
        </mxCell>
        <mxCell id="x_obFE7ms34Sc6ZjcU9q-116" value="" style="rounded=1;whiteSpace=wrap;html=1;" vertex="1" parent="x_obFE7ms34Sc6ZjcU9q-159">
          <mxGeometry width="164" height="79" as="geometry" />
        </mxCell>
        <mxCell id="x_obFE7ms34Sc6ZjcU9q-117" value="SubConv3d(16, 16)&lt;br&gt;BN, ReLU" style="rounded=1;whiteSpace=wrap;html=1;" vertex="1" parent="x_obFE7ms34Sc6ZjcU9q-159">
          <mxGeometry x="7.5" y="23" width="111.5" height="45" as="geometry" />
        </mxCell>
        <mxCell id="x_obFE7ms34Sc6ZjcU9q-118" value="block 1" style="text;html=1;strokeColor=none;fillColor=none;align=center;verticalAlign=middle;whiteSpace=wrap;rounded=0;" vertex="1" parent="x_obFE7ms34Sc6ZjcU9q-159">
          <mxGeometry x="110.75" y="7" width="53" height="20" as="geometry" />
        </mxCell>
        <mxCell id="x_obFE7ms34Sc6ZjcU9q-160" style="edgeStyle=orthogonalEdgeStyle;rounded=0;orthogonalLoop=1;jettySize=auto;html=1;entryX=0;entryY=0.5;entryDx=0;entryDy=0;strokeColor=#000000;exitX=0.5;exitY=1;exitDx=0;exitDy=0;" edge="1" parent="1" source="x_obFE7ms34Sc6ZjcU9q-131" target="x_obFE7ms34Sc6ZjcU9q-137">
          <mxGeometry relative="1" as="geometry" />
        </mxCell>
        <mxCell id="x_obFE7ms34Sc6ZjcU9q-161" style="edgeStyle=orthogonalEdgeStyle;rounded=0;orthogonalLoop=1;jettySize=auto;html=1;strokeColor=#000000;" edge="1" parent="1" source="x_obFE7ms34Sc6ZjcU9q-137" target="x_obFE7ms34Sc6ZjcU9q-148">
          <mxGeometry relative="1" as="geometry" />
        </mxCell>
        <mxCell id="x_obFE7ms34Sc6ZjcU9q-163" style="edgeStyle=orthogonalEdgeStyle;rounded=0;orthogonalLoop=1;jettySize=auto;html=1;fontSize=16;strokeColor=#000000;" edge="1" parent="1" source="x_obFE7ms34Sc6ZjcU9q-148" target="x_obFE7ms34Sc6ZjcU9q-152">
          <mxGeometry relative="1" as="geometry" />
        </mxCell>
        <mxCell id="x_obFE7ms34Sc6ZjcU9q-174" value="&lt;span style=&quot;font-size: 16px ; font-weight: 700&quot;&gt;Head&lt;/span&gt;" style="text;html=1;strokeColor=none;fillColor=none;align=center;verticalAlign=middle;whiteSpace=wrap;rounded=0;" vertex="1" parent="1">
          <mxGeometry x="-2323.5" y="-2568" width="53" height="20" as="geometry" />
        </mxCell>
        <mxCell id="x_obFE7ms34Sc6ZjcU9q-179" style="edgeStyle=orthogonalEdgeStyle;rounded=0;orthogonalLoop=1;jettySize=auto;html=1;entryX=0;entryY=0.5;entryDx=0;entryDy=0;fontSize=12;strokeColor=#000000;exitX=1;exitY=0.5;exitDx=0;exitDy=0;" edge="1" parent="1" source="x_obFE7ms34Sc6ZjcU9q-53" target="x_obFE7ms34Sc6ZjcU9q-60">
          <mxGeometry relative="1" as="geometry">
            <mxPoint x="-2519.91" y="-1991" as="sourcePoint" />
            <mxPoint x="-2351.25" y="-2422" as="targetPoint" />
            <Array as="points">
              <mxPoint x="-2384" y="-2056" />
              <mxPoint x="-2384" y="-2422" />
            </Array>
          </mxGeometry>
        </mxCell>
      </root>
    </mxGraphModel>
  </diagram>
</mxfile>
